<svg width="84" height="17" viewBox="0 0 84 17" fill="none" xmlns="http://www.w3.org/2000/svg">
<path d="M8.4 0L10.2859 5.80426H16.3889L11.4515 9.39149L13.3374 15.1957L8.4 11.6085L3.4626 15.1957L5.34852 9.39149L0.411125 5.80426H6.51408L8.4 0Z" fill="#FF9533"/>
<path d="M25.2 0L27.086 5.80426H33.1889L28.2515 9.39149L30.1374 15.1957L25.2 11.6085L20.2627 15.1957L22.1486 9.39149L17.2112 5.80426H23.3141L25.2 0Z" fill="#FF9533"/>
<path d="M42.0001 0L43.886 5.80426H49.989L45.0516 9.39149L46.9375 15.1957L42.0001 11.6085L37.0627 15.1957L38.9486 9.39149L34.0112 5.80426H40.1142L42.0001 0Z" fill="#FF9533"/>
<path d="M58.7999 0L60.6858 5.80426H66.7888L61.8514 9.39149L63.7373 15.1957L58.7999 11.6085L53.8625 15.1957L55.7484 9.39149L50.811 5.80426H56.914L58.7999 0Z" fill="#FF9533"/>
<path d="M75.6 0L77.4859 5.80426H83.5888L78.6514 9.39149L80.5373 15.1957L75.6 11.6085L70.6626 15.1957L72.5485 9.39149L67.6111 5.80426H73.714L75.6 0Z" fill="#E5E5E5"/>
</svg>
