<svg width="17" height="16" viewBox="0 0 17 16" fill="none" xmlns="http://www.w3.org/2000/svg">
<path d="M16.0682 8.39053C16.0682 12.5932 12.6786 16.0003 8.49749 16.0003C4.31634 16.0003 0.926758 12.5932 0.926758 8.39053C0.926758 4.18783 4.31634 0.780762 8.49749 0.780762C12.6786 0.780762 16.0682 4.18783 16.0682 8.39053Z" fill="#FFCC4D"/>
<path d="M12.8345 7.381C12.7609 7.32097 12.6554 7.31885 12.578 7.37508C12.5729 7.37889 12.0476 7.75641 11.0209 7.75641C9.99466 7.75641 9.46892 7.37889 9.46471 7.37593C9.38774 7.31801 9.28175 7.3197 9.20773 7.37973C9.13286 7.43976 9.10762 7.54292 9.14632 7.63085C9.17155 7.68793 9.77721 9.0247 11.0209 9.0247C12.265 9.0247 12.8703 7.68793 12.8955 7.63085C12.9342 7.54334 12.909 7.44103 12.8345 7.381ZM7.53081 7.37508C7.52576 7.37889 7.00085 7.75641 5.97376 7.75641C4.94708 7.75641 4.42175 7.37889 4.41755 7.37593C4.34058 7.31801 4.23501 7.3197 4.16056 7.37973C4.0857 7.43976 4.06046 7.54292 4.09916 7.63085C4.12439 7.68793 4.73005 9.0247 5.97376 9.0247C7.21788 9.0247 7.82312 7.68793 7.84836 7.63085C7.88705 7.54334 7.86182 7.44103 7.78737 7.381C7.71335 7.32055 7.60735 7.31885 7.53081 7.37508ZM13.1243 6.27675C12.996 6.27675 12.8703 6.2184 12.7874 6.10764C11.6972 4.64658 9.85965 4.99662 9.84157 5C9.6115 5.04566 9.39237 4.89727 9.34652 4.66856C9.3011 4.43984 9.44873 4.21705 9.67627 4.17097C9.77343 4.1511 12.0556 3.71777 13.46 5.5999C13.5996 5.78676 13.5617 6.05184 13.3758 6.19177C13.3006 6.24927 13.2122 6.27675 13.1243 6.27675V6.27675ZM3.87035 6.27675C3.78287 6.27675 3.69412 6.24927 3.61841 6.19219C3.43251 6.05226 3.39508 5.78719 3.53429 5.60033C4.93867 3.71734 7.22125 4.15194 7.31798 4.17139C7.54595 4.21705 7.69358 4.43984 7.64773 4.66898C7.60231 4.89727 7.38107 5.04566 7.15395 5.00085C7.07572 4.98605 5.28818 4.65926 4.20725 6.10764C4.12481 6.2184 3.99821 6.27675 3.87035 6.27675V6.27675ZM10.7072 10.7483C10.6281 10.7014 10.5255 10.7119 10.4561 10.7737C10.4519 10.777 10.03 11.1385 8.49734 11.1385C6.96594 11.1385 6.54324 10.7775 6.54324 10.7775C6.47637 10.7098 6.37332 10.6971 6.29089 10.7428C6.20887 10.7897 6.16765 10.8861 6.19078 10.9783C6.19499 10.9969 6.67195 12.8296 8.49734 12.8296C10.3227 12.8296 10.7997 10.9969 10.8043 10.9783C10.8266 10.8882 10.7858 10.7961 10.7072 10.7483V10.7483Z" fill="#664500"/>
</svg>
